# xmcd CD database file
#
# Track frame offsets:
#	150
#	13102
#	25762
#	37055
#	48752
#	57152
#	71072
#	82825
#
# Disc length: 1276 seconds
#
# Revision: 0
# Processed by: cddbd v1.5.2PL0 Copyright (c) Steve Scherf et al.
# Submitted via: CDex 1.51
#
DISCID=5d04fa08
DTITLE=Jim Reevs - Pure Gold
DYEAR=1995
DGENRE=Country
TTITLE0=Four Walls
TTITLE1=Goodnight Irene
TTITLE2=My Happiness
TTITLE3=Welcome To My World
TTITLE4=From A Jack to A King
TTITLE5=Auf Wiederseh'n Sweetheart
TTITLE6=Mona Lisa
TTITLE7=You'll Never Know
EXTD=YEAR: 1995
EXTT0=
EXTT1=
EXTT2=
EXTT3=
EXTT4=
EXTT5=
EXTT6=
EXTT7=
PLAYORDER=
